<?xml version="1.0" encoding="iso-8859-1"?>
<!-- Generator: Adobe Illustrator 19.0.0, SVG Export Plug-In . SVG Version: 6.00 Build 0)  -->
<svg version="1.1" id="Capa_1" xmlns="http://www.w3.org/2000/svg" xmlns:xlink="http://www.w3.org/1999/xlink" x="0px" y="0px"
	 viewBox="0 0 512 512" style="enable-background:new 0 0 512 512;" xml:space="preserve">
<path style="fill:#FFFFFF;" d="M41.912,355.048C21.008,355.048,4,338.04,4,317.128V194.872c0-20.912,17.008-37.92,37.912-37.92
	H470.08c20.904,0,37.912,17.008,37.912,37.92v122.256c0,20.912-17.008,37.92-37.912,37.92L41.912,355.048L41.912,355.048z"/>
<path d="M470.08,160.952c18.704,0,33.92,15.216,33.92,33.92v122.264c0,18.704-15.216,33.92-33.92,33.92H41.92
	C23.216,351.056,8,335.84,8,317.136V194.864c0-18.704,15.216-33.92,33.92-33.92h428.16 M470.08,152.952H41.92
	C18.768,152.952,0,171.72,0,194.872v122.264c0,23.152,18.768,41.92,41.92,41.92h428.16c23.152,0,41.92-18.768,41.92-41.92V194.864
	C512,171.72,493.232,152.952,470.08,152.952L470.08,152.952z"/>
<path style="fill:#F91E1E;" d="M470.08,359.048H41.92C18.768,359.048,0,340.28,0,317.128V194.864c0-23.152,18.768-41.92,41.92-41.92
	h428.16c23.152,0,41.92,18.768,41.92,41.92v122.264C512,340.28,493.232,359.048,470.08,359.048z"/>
<g>
	<path style="fill:#FFFFFF;" d="M78.2,218.304c11.232,0,19.872,2.856,25.936,8.576c6.056,5.72,9.088,14.432,9.088,26.136
		c0,6.128-0.688,11.552-2.048,16.288c-1.36,4.728-3.472,8.712-6.328,11.944s-6.496,5.704-10.92,7.4
		c-4.432,1.704-9.672,2.552-15.728,2.552H53.184v-72.896L78.2,218.304L78.2,218.304z M79.024,283.032
		c1.088,0,2.448-0.088,4.08-0.256c1.64-0.168,3.376-0.576,5.208-1.224s3.656-1.584,5.464-2.808s3.424-2.896,4.848-5.008
		s2.6-4.744,3.52-7.912c0.912-3.168,1.376-6.992,1.376-11.488c0-4.352-0.424-8.248-1.272-11.688s-2.248-6.368-4.184-8.784
		s-4.448-4.248-7.504-5.512c-3.064-1.256-6.832-1.88-11.328-1.88H62.888v56.56H79.024z"/>
	<path style="fill:#FFFFFF;" d="M155.592,218.304L184.08,291.2h-10.72l-7.968-21.952H134.56l-8.168,21.952h-9.896l28.384-72.896
		L155.592,218.304L155.592,218.304z M162.328,261.08l-12.152-34h-0.2l-12.352,34H162.328z"/>
	<path style="fill:#FFFFFF;" d="M201.432,218.304l38.392,59.12h0.2v-59.12h9.184V291.2h-10.616l-38.08-58.496h-0.208V291.2h-9.184
		v-72.896L201.432,218.304L201.432,218.304z"/>
	<path style="fill:#FFFFFF;" d="M308.84,290.336c-4.216,1.664-8.48,2.496-12.768,2.496c-5.448,0-10.312-1.008-14.6-3.008
		c-4.28-2.008-7.928-4.72-10.92-8.12c-2.992-3.408-5.272-7.32-6.832-11.744c-1.568-4.424-2.352-9.024-2.352-13.792
		c0-5.304,0.728-10.36,2.192-15.16s3.64-9,6.528-12.608c2.896-3.608,6.496-6.488,10.832-8.624c4.32-2.152,9.376-3.216,15.16-3.216
		c3.944,0,7.672,0.464,11.176,1.376c3.504,0.92,6.64,2.368,9.4,4.344c2.752,1.976,5.064,4.48,6.936,7.504
		c1.872,3.032,3.152,6.688,3.832,10.976h-9.696c-0.48-2.792-1.368-5.184-2.656-7.192c-1.296-2.008-2.888-3.656-4.8-4.952
		c-1.904-1.288-4.072-2.264-6.488-2.904c-2.416-0.648-4.984-0.976-7.712-0.976c-4.424,0-8.216,0.888-11.384,2.656
		c-3.168,1.776-5.752,4.104-7.76,6.992c-2.008,2.896-3.496,6.192-4.448,9.904s-1.432,7.504-1.432,11.384
		c0,3.816,0.544,7.472,1.64,10.976c1.088,3.504,2.688,6.6,4.8,9.288c2.112,2.696,4.712,4.832,7.816,6.44
		c3.096,1.592,6.688,2.4,10.768,2.4c3.816,0,7.176-0.616,10.112-1.84c2.928-1.216,5.392-2.904,7.408-5.048
		c2-2.152,3.512-4.664,4.536-7.56c1.024-2.888,1.464-6,1.328-9.336h-23.28v-8.168h31.96V291.2h-6.128l-2.552-9.088
		C316.6,285.928,313.064,288.664,308.84,290.336z"/>
	<path style="fill:#FFFFFF;" d="M392.768,218.304v8.168h-40.632v23.168h37.872v8.168h-37.872v25.216h40.936v8.176h-50.64v-72.896
		L392.768,218.304L392.768,218.304z"/>
	<path style="fill:#FFFFFF;" d="M439.104,218.304c6.944,0,12.376,1.704,16.288,5.104c3.912,3.408,5.864,8.072,5.864,13.992
		c0,4.424-1,8.304-3.008,11.64s-5.224,5.608-9.648,6.832v0.2c2.112,0.416,3.832,1.096,5.16,2.048
		c1.328,0.952,2.384,2.096,3.168,3.424c0.784,1.32,1.36,2.808,1.736,4.44c0.376,1.632,0.664,3.336,0.864,5.104
		c0.136,1.776,0.24,3.576,0.304,5.416c0.072,1.832,0.24,3.64,0.512,5.416c0.264,1.768,0.664,3.456,1.168,5.056
		c0.504,1.592,1.272,3.008,2.296,4.232h-10.824c-0.68-0.752-1.144-1.768-1.384-3.064c-0.232-1.288-0.392-2.744-0.464-4.336
		c-0.064-1.6-0.136-3.32-0.2-5.16c-0.064-1.84-0.272-3.64-0.608-5.416c-0.272-1.776-0.608-3.456-1.024-5.056
		c-0.408-1.6-1.056-2.992-1.936-4.184c-0.88-1.184-2.04-2.144-3.472-2.856c-1.432-0.712-3.336-1.072-5.72-1.072h-23.688V291.2H404.8
		v-72.896L439.104,218.304L439.104,218.304z M441.152,251.376c2.04-0.336,3.832-1,5.36-1.992c1.528-0.984,2.76-2.312,3.672-3.976
		c0.92-1.672,1.384-3.832,1.384-6.488c0-3.68-1.024-6.672-3.064-8.984c-2.048-2.312-5.344-3.472-9.904-3.472h-24.096v25.424h20.208
		C436.968,251.896,439.104,251.72,441.152,251.376z"/>
</g>
<g>
</g>
<g>
</g>
<g>
</g>
<g>
</g>
<g>
</g>
<g>
</g>
<g>
</g>
<g>
</g>
<g>
</g>
<g>
</g>
<g>
</g>
<g>
</g>
<g>
</g>
<g>
</g>
<g>
</g>
</svg>
